<svg width="64" height="64" viewBox="0 0 64 64" fill="none" xmlns="http://www.w3.org/2000/svg">
<rect width="64" height="64" rx="12" fill="#F3F4F6"/>
<path d="M32 16C24.268 16 18 22.268 18 30C18 37.732 24.268 44 32 44C39.732 44 46 37.732 46 30C46 22.268 39.732 16 32 16Z" fill="#10B981"/>
<path d="M32 24C28.6863 24 26 26.6863 26 30C26 33.3137 28.6863 36 32 36C35.3137 36 38 33.3137 38 30C38 26.6863 35.3137 24 32 24Z" fill="white"/>
<path d="M32 40C30.3431 40 29 38.6569 29 37H29C29 35.3431 30.3431 34 32 34C33.6569 34 35 35.3431 35 37H35C35 38.6569 33.6569 40 32 40Z" fill="white"/>
</svg>

